<svg width="119" height="42" viewBox="0 0 119 42" fill="none" xmlns="http://www.w3.org/2000/svg">
<path d="M66.8332 5.49512C66.9357 5.49512 67.0211 5.51219 67.1065 5.56339C67.1919 5.6146 67.2602 5.68288 67.3115 5.76822C67.3627 5.85357 67.3969 5.95598 67.3969 6.0584V7.73117C67.3969 7.88479 67.3456 8.02134 67.2261 8.14083C67.1065 8.26031 66.9869 8.31152 66.8161 8.31152H63.3488V19.3894C63.3488 19.4747 63.3317 19.5601 63.3146 19.6283C63.2805 19.6966 63.2463 19.7649 63.1951 19.8161C63.1438 19.8673 63.0926 19.9014 63.0072 19.9356C62.9388 19.9697 62.8534 19.9697 62.768 19.9697H61.0942C60.9404 19.9697 60.8038 19.9185 60.6842 19.799C60.5647 19.6795 60.5134 19.5601 60.5134 19.3894V8.31152H57.0632C56.9094 8.31152 56.7728 8.26031 56.6532 8.14083C56.5337 8.02134 56.4824 7.90186 56.4824 7.73117V6.0584C56.4824 5.88771 56.5337 5.75115 56.6532 5.64874C56.7728 5.54632 56.8924 5.49512 57.0632 5.49512H66.8332Z" fill="#2BBE72"/>
<path d="M80.8576 20.8739C80.9942 21.0617 81.0113 21.2494 80.9088 21.4713C80.8063 21.6761 80.6355 21.7956 80.3964 21.7956H78.2955C78.1076 21.7956 77.971 21.7103 77.8514 21.5567L73.53 15.8214H72.3344V19.3889C72.3344 19.4913 72.3173 19.5766 72.2661 19.6791C72.2148 19.7644 72.1465 19.8327 72.0611 19.8839C71.9757 19.9351 71.8732 19.9522 71.7707 19.9522H70.0969C69.9944 19.9522 69.909 19.9351 69.8065 19.8839C69.7211 19.8327 69.6357 19.7644 69.6015 19.6791C69.5503 19.5937 69.5332 19.4913 69.5332 19.3889V6.05791C69.5332 5.88722 69.5844 5.75066 69.704 5.64825C69.8236 5.54584 69.9431 5.49463 70.1139 5.49463H74.5549C75.9896 5.49463 77.2365 5.98963 78.2613 6.97964C79.3032 7.96965 79.8157 9.18156 79.8157 10.6154C79.8327 11.6395 79.5595 12.5954 78.9958 13.4659C78.4321 14.3364 77.6806 14.9851 76.7583 15.3947L80.8576 20.8739ZM74.6403 13.005C75.2893 13.005 75.8359 12.7831 76.2971 12.3223C76.7583 11.8614 76.9803 11.3152 76.9803 10.6666C76.9803 10.0179 76.7583 9.47173 76.2971 9.01086C75.8359 8.55 75.2893 8.3281 74.6403 8.3281H72.3344V13.0221H74.6403V13.005Z" fill="#2BBE72"/>
<path d="M94.8289 21.0616C94.8801 21.2494 94.863 21.4201 94.7434 21.5737C94.6239 21.7273 94.4702 21.8127 94.2823 21.8127H92.523C92.2326 21.8127 92.0618 21.6932 91.9764 21.4372L88.1504 9.93259L84.9051 19.5937C84.8197 19.8497 84.6489 19.9692 84.3756 19.9692H82.5992C82.3942 19.9692 82.2405 19.8839 82.138 19.7303C82.0185 19.5766 82.0014 19.4059 82.0526 19.2182L86.5448 5.87015C86.6302 5.61411 86.801 5.49463 87.0743 5.49463H89.2264C89.4997 5.49463 89.6705 5.61411 89.773 5.87015L94.8289 21.0616Z" fill="#2BBE72"/>
<path d="M106.614 17.171C106.734 17.2905 106.785 17.427 106.802 17.5806C106.802 17.7513 106.751 17.8879 106.614 17.9903C105.675 18.8779 104.599 19.4753 103.369 19.7655C102.139 20.0557 100.909 20.0386 99.6964 19.6972C98.4837 19.3558 97.4247 18.7243 96.5024 17.8025C95.5971 16.8808 94.9822 15.8225 94.6577 14.5935C94.3332 13.3646 94.3332 12.1356 94.6406 10.9237C94.9651 9.71178 95.563 8.63643 96.4682 7.69763C97.3564 6.75882 98.4154 6.12727 99.6281 5.76882C100.841 5.41036 102.071 5.37623 103.3 5.6664C104.53 5.95658 105.623 6.51986 106.563 7.40745C106.682 7.52694 106.751 7.66349 106.751 7.83418C106.751 8.00487 106.682 8.14142 106.563 8.26091L105.316 9.40454C105.213 9.50695 105.094 9.55816 104.957 9.55816C104.821 9.55816 104.684 9.50695 104.581 9.40454C103.693 8.63643 102.651 8.27797 101.473 8.32918C100.294 8.38039 99.2865 8.84126 98.4666 9.69471C97.6468 10.5482 97.2368 11.5723 97.2368 12.7501C97.2368 13.9279 97.6468 14.952 98.4666 15.8055C99.2865 16.6589 100.294 17.1027 101.49 17.1539C102.668 17.2051 103.71 16.8296 104.599 16.0444C104.718 15.9591 104.838 15.9249 104.974 15.9249C105.111 15.9249 105.231 15.9761 105.333 16.0786L106.614 17.171Z" fill="#2BBE72"/>
<path d="M117.408 8.31154H111.737V11.3157H115.597C115.768 11.3157 115.905 11.3669 116.007 11.4864C116.11 11.6059 116.161 11.7254 116.161 11.8961V13.5688C116.161 13.7395 116.11 13.8761 116.007 13.9785C115.905 14.0809 115.768 14.1321 115.597 14.1321H111.737V17.1533H117.408C117.562 17.1533 117.698 17.2045 117.818 17.324C117.937 17.4435 117.989 17.563 117.989 17.7337V19.4065C117.989 19.5089 117.972 19.5942 117.92 19.6966C117.869 19.782 117.801 19.8503 117.715 19.9015C117.63 19.9527 117.528 19.9697 117.425 19.9697H109.517C109.414 19.9697 109.329 19.9527 109.226 19.9015C109.141 19.8503 109.056 19.782 109.021 19.6966C108.97 19.6113 108.953 19.5089 108.953 19.4065V6.07549C108.953 5.9048 109.004 5.76825 109.124 5.66583C109.243 5.56342 109.363 5.51221 109.534 5.51221H117.442C117.596 5.51221 117.732 5.56342 117.852 5.66583C117.972 5.76825 118.023 5.9048 118.023 6.07549V7.74826C118.023 7.90188 117.972 8.03843 117.852 8.15792C117.698 8.26033 117.562 8.31154 117.408 8.31154Z" fill="#2BBE72"/>
<path d="M16.225 20.9267C16.3446 21.1145 16.3617 21.3022 16.2592 21.5071C16.1567 21.7119 15.9859 21.8143 15.7638 21.8143H13.7484C13.5605 21.8143 13.3897 21.7289 13.2872 21.5583L8.16303 14.1161V19.4246C8.16303 19.51 8.14595 19.5782 8.12886 19.6636C8.0947 19.7319 8.06054 19.8001 8.0093 19.8343C7.95806 19.8855 7.90682 19.9196 7.8385 19.9538C7.77017 19.9879 7.68477 19.9879 7.59937 19.9879H5.94256C5.84008 19.9879 5.75468 19.9708 5.65219 19.9196C5.56679 19.8684 5.49847 19.8001 5.44723 19.7148C5.39599 19.6295 5.37891 19.527 5.37891 19.4246V9.79765C5.37891 9.64403 5.43015 9.50748 5.54971 9.40506C5.66927 9.30265 5.78884 9.25144 5.94256 9.25144H7.59937C7.7531 9.25144 7.88974 9.30265 7.99222 9.40506C8.11178 9.50748 8.16303 9.64403 8.16303 9.79765V11.5046L12.0061 5.85469C12.1257 5.70107 12.2794 5.61572 12.4673 5.61572H14.4828C14.7049 5.61572 14.8757 5.71814 14.9781 5.9059C15.0806 6.09366 15.0806 6.29849 14.944 6.48625L10.6568 12.8018L16.225 20.9267Z" fill="white"/>
<path d="M21.8276 19.9713C20.854 19.9713 19.9146 19.7836 19.0264 19.4081C18.1382 19.0325 17.3867 18.5205 16.7376 17.8889C16.0886 17.2574 15.5761 16.4892 15.2004 15.6017C14.8246 14.7141 14.6367 13.7923 14.6367 12.8194C14.6367 11.5221 14.9612 10.3102 15.5932 9.20074C16.2252 8.09125 17.0963 7.22073 18.2065 6.58917C19.3168 5.95761 20.5124 5.6333 21.8276 5.6333C23.1257 5.6333 24.3384 5.95761 25.4316 6.58917C26.5247 7.22073 27.3958 8.09125 28.0449 9.20074C28.694 10.3102 29.0185 11.5051 29.0185 12.8023C29.0185 14.0996 28.694 15.2944 28.0449 16.4039C27.3958 17.5134 26.5247 18.3839 25.4316 19.0155C24.3384 19.6641 23.1428 19.9713 21.8276 19.9713ZM21.8276 17.1891C22.6133 17.1891 23.3478 17.0013 24.031 16.6087C24.7142 16.2161 25.2437 15.687 25.6366 15.0042C26.0294 14.3385 26.2173 13.6046 26.2344 12.8194C26.2344 12.239 26.1148 11.6758 25.8928 11.1296C25.6707 10.5833 25.3462 10.1225 24.9363 9.71282C24.5263 9.30316 24.0481 8.99591 23.5186 8.77401C22.6987 8.43263 21.8447 8.34729 20.9736 8.51798C20.1025 8.68867 19.3509 9.08126 18.719 9.71282C18.087 10.3444 17.6941 11.0954 17.5233 11.9659C17.3525 12.8365 17.4379 13.6728 17.7795 14.4922C18.1211 15.3115 18.6506 15.9601 19.4022 16.4551C20.1366 16.933 20.9565 17.1891 21.8276 17.1891Z" fill="white"/>
<path d="M39.7599 17.2061C39.9136 17.2061 40.0503 17.2574 40.1528 17.3768C40.2553 17.4963 40.3065 17.6158 40.3065 17.7694V19.4251C40.3065 19.5275 40.2894 19.6129 40.2382 19.7153C40.1869 19.8007 40.1186 19.8689 40.0332 19.9201C39.9478 19.9713 39.8624 19.9884 39.7599 19.9884H31.6808C31.5271 19.9884 31.3905 19.9372 31.288 19.8177C31.1684 19.6982 31.1172 19.5788 31.1172 19.4251V6.19658C31.1172 6.04296 31.1684 5.90641 31.288 5.80399C31.4076 5.68451 31.5271 5.6333 31.6808 5.6333H33.3377C33.4914 5.6333 33.628 5.68451 33.7305 5.80399C33.8501 5.92348 33.9013 6.04296 33.9013 6.19658V17.2061H39.7599Z" fill="white"/>
<path d="M48.4382 5.6333C48.5407 5.6333 48.6261 5.65037 48.7115 5.70158C48.7969 5.75278 48.8653 5.82106 48.9165 5.9064C48.9677 5.99175 49.0019 6.09416 49.0019 6.19658V7.85228C49.0019 8.00591 48.9507 8.14246 48.8311 8.24487C48.7115 8.36435 48.592 8.41556 48.4382 8.41556H44.988V19.4251C44.988 19.5788 44.9367 19.7153 44.8343 19.8177C44.7318 19.9372 44.5951 19.9884 44.4243 19.9884H42.7675C42.6138 19.9884 42.4772 19.9372 42.3747 19.8177C42.2551 19.6982 42.2039 19.5788 42.2039 19.4251V8.43263H38.7707C38.617 8.43263 38.4803 8.38143 38.3778 8.26194C38.2583 8.14246 38.207 8.02297 38.207 7.86935V6.21365C38.207 6.04296 38.2583 5.90641 38.3778 5.80399C38.4974 5.70158 38.617 5.65037 38.7707 5.65037H48.4382V5.6333Z" fill="white"/>
<path d="M51.1211 6.19658C51.1211 6.04296 51.1723 5.90641 51.2919 5.80399C51.4115 5.68451 51.531 5.6333 51.6848 5.6333H53.3416C53.4953 5.6333 53.6319 5.68451 53.7344 5.80399C53.854 5.92348 53.9052 6.04296 53.9052 6.19658V19.4251C53.9052 19.5275 53.8881 19.6129 53.8369 19.7153C53.7856 19.8007 53.7173 19.8689 53.6319 19.9201C53.5465 19.9713 53.444 19.9884 53.3416 19.9884H51.6848C51.531 19.9884 51.3944 19.9372 51.2919 19.8177C51.1723 19.6982 51.1211 19.5788 51.1211 19.4251V6.19658Z" fill="white"/>
<path d="M6.74467 7.03247C5.97605 7.0154 5.20742 6.98127 4.45588 6.82764C3.0382 6.53747 2.03045 5.68401 1.33015 4.43797C0.646932 3.22606 0.288242 1.91174 0.0149537 0.563281C-0.0533682 0.256037 0.117438 0 0.424887 0C2.18418 0.0682764 3.92639 0.238968 5.48071 1.14363C6.40306 1.67277 7.01796 2.45795 7.37665 3.44796C7.73534 4.40383 7.90614 5.41091 8.00863 6.41798C8.04279 6.82764 7.90614 6.96419 7.49621 6.98126C7.37665 6.98126 7.24 7.0154 7.12044 7.0154C7.00088 7.04954 6.88131 7.03247 6.74467 7.03247Z" fill="#2BBE72"/>
<path d="M12.0306 32.5395V38.666H10.6302V35.1039L9.04609 37.7033H8.88855L7.3044 35.1039V38.666H5.90404V32.5395H7.3044L8.96732 35.2614L10.6302 32.5395H12.0306ZM14.659 32.5395H16.0594V38.666H14.659V32.5395ZM20.7462 38.7885C19.4597 38.7885 18.637 38.1759 18.2956 37.2744L19.5034 36.5742C19.7222 37.0819 20.0986 37.4232 20.79 37.4232C21.4552 37.4232 21.6215 37.1606 21.6215 36.9243C21.6215 36.548 21.2714 36.3992 20.3524 36.1454C19.4422 35.8916 18.5494 35.4539 18.5494 34.2811C18.5494 33.0996 19.5472 32.4169 20.6062 32.4169C21.6127 32.4169 22.4004 32.8983 22.8468 33.7998L21.6652 34.4912C21.4552 34.0536 21.1664 33.7823 20.6062 33.7823C20.1686 33.7823 19.9498 34.0011 19.9498 34.2461C19.9498 34.5262 20.0986 34.7188 21.0526 35.0076C21.9803 35.2877 23.0218 35.6115 23.0218 36.9068C23.0218 38.0884 22.0766 38.7885 20.7462 38.7885Z" fill="white"/>
</svg>
