<svg width="41" height="42" viewBox="0 0 41 42" fill="none" xmlns="http://www.w3.org/2000/svg">
<g clip-path="url(#clip0_3352_14816)">
<path d="M40.9575 0.759338H0.0595703V41.6573H40.9575V0.759338Z" fill="#54A7DC"/>
<path d="M25.157 20.9945C25.2324 21.1202 25.2492 21.2459 25.1821 21.38C25.1151 21.5142 24.9977 21.5812 24.8468 21.5812H23.5056C23.3799 21.5812 23.2709 21.5225 23.1955 21.4136L19.7755 16.4344V19.9802C19.7755 20.0389 19.7671 20.0808 19.7503 20.1394C19.7252 20.1814 19.7084 20.2317 19.6749 20.2568C19.6413 20.2903 19.6078 20.3155 19.5575 20.3322C19.5156 20.3574 19.4569 20.3574 19.3982 20.3574H18.2918C18.2247 20.3574 18.166 20.349 18.099 20.3155C18.0403 20.2819 17.9984 20.24 17.9565 20.173C17.9229 20.1143 17.9146 20.0472 17.9146 19.9802V13.5425C17.9146 13.4419 17.9481 13.3497 18.0319 13.2826C18.1073 13.2155 18.1912 13.182 18.2918 13.182H19.3982C19.4988 13.182 19.591 13.2155 19.6581 13.2826C19.7335 13.3497 19.7755 13.4419 19.7755 13.5425V14.6909L22.3405 10.9188C22.4159 10.8182 22.5249 10.7595 22.6506 10.7595H23.9918C24.1427 10.7595 24.2517 10.8266 24.3271 10.9523C24.3942 11.078 24.3942 11.2121 24.302 11.3379L21.4436 15.5626L25.157 20.9945Z" fill="white"/>
<path d="M18.828 11.7069C18.3167 11.6985 17.797 11.6734 17.3024 11.5644C16.3552 11.3716 15.6762 10.8016 15.2152 9.96336C14.7625 9.15864 14.5195 8.27849 14.335 7.37318C14.2931 7.172 14.4021 6.99597 14.6117 6.99597C15.7852 7.03788 16.9504 7.15524 17.9898 7.75877C18.6017 8.11084 19.0208 8.63893 19.2555 9.29276C19.4902 9.92983 19.6076 10.6004 19.6747 11.2794C19.6998 11.556 19.6076 11.6482 19.331 11.6566C19.2555 11.6566 19.1633 11.6818 19.0795 11.6818C18.9957 11.7153 18.9202 11.7069 18.828 11.7069Z" fill="white"/>
<path d="M13.709 28.7857H13.1041L12.3858 29.9614L11.6675 28.7857H11.0627V31.432H11.6675V29.8933L12.3518 31.0162H12.4199L13.1041 29.8933V31.432H13.709V28.7857ZM14.5419 28.7857V31.432H15.1468V28.7857H14.5419ZM16.8688 31.4849C17.4435 31.4849 17.8518 31.1825 17.8518 30.6721C17.8518 30.1126 17.4019 29.9727 17.0011 29.8518C16.5891 29.727 16.5248 29.6438 16.5248 29.5229C16.5248 29.417 16.6193 29.3225 16.8083 29.3225C17.0503 29.3225 17.175 29.4397 17.2658 29.6287L17.7761 29.3301C17.5833 28.9407 17.2431 28.7327 16.8083 28.7327C16.3509 28.7327 15.9199 29.0276 15.9199 29.538C15.9199 30.0446 16.3055 30.2336 16.6987 30.3432C17.0957 30.4529 17.2469 30.5171 17.2469 30.6797C17.2469 30.7818 17.175 30.8952 16.8877 30.8952C16.5891 30.8952 16.4265 30.7477 16.332 30.5285L15.8103 30.8309C15.9577 31.2203 16.3131 31.4849 16.8688 31.4849ZM20.4601 30.8498V28.7857H19.8553V31.432H21.4053V30.8498H20.4601ZM23.161 31.4849C23.9209 31.4849 24.5371 30.8876 24.5371 30.1088C24.5371 29.3301 23.9209 28.7327 23.161 28.7327C22.4012 28.7327 21.7849 29.3301 21.7849 30.1088C21.7849 30.8876 22.4012 31.4849 23.161 31.4849ZM23.161 30.8952C22.7301 30.8952 22.3898 30.5814 22.3898 30.1088C22.3898 29.6363 22.7301 29.3225 23.161 29.3225C23.592 29.3225 23.9323 29.6363 23.9323 30.1088C23.9323 30.5814 23.592 30.8952 23.161 30.8952ZM26.8421 31.432H27.5037L26.6039 28.7857H25.8327L24.9329 31.432H25.5945L25.7269 31.0162H26.7098L26.8421 31.432ZM25.9083 30.4491L26.2183 29.4775L26.5283 30.4491H25.9083ZM29.5818 28.7857V30.2222L28.561 28.7857H28.1074V31.432H28.7123V29.9954L29.733 31.432H30.1867V28.7857H29.5818Z" fill="white"/>
</g>
<defs>
<clipPath id="clip0_3352_14816">
<rect y="0.693359" width="40.8979" height="40.8979" rx="8" fill="white"/>
</clipPath>
</defs>
</svg>
