<svg width="41" height="42" viewBox="0 0 41 42" fill="none" xmlns="http://www.w3.org/2000/svg">
<g clip-path="url(#clip0_3352_14806)">
<path d="M40.956 0.860901H0.0581055V41.7588H40.956V0.860901Z" fill="#DB4D4E"/>
<path d="M25.1545 21.096C25.23 21.2218 25.2467 21.3475 25.1797 21.4816C25.1126 21.6158 24.9953 21.6828 24.8444 21.6828H23.5032C23.3775 21.6828 23.2685 21.6241 23.193 21.5152L19.773 16.536V20.0818C19.773 20.1404 19.7646 20.1824 19.7479 20.241C19.7227 20.2829 19.706 20.3332 19.6724 20.3584C19.6389 20.3919 19.6054 20.4171 19.5551 20.4338C19.5132 20.459 19.4545 20.459 19.3958 20.459H18.2893C18.2223 20.459 18.1636 20.4506 18.0965 20.4171C18.0378 20.3835 17.9959 20.3416 17.954 20.2746C17.9205 20.2159 17.9121 20.1488 17.9121 20.0818V13.6441C17.9121 13.5435 17.9456 13.4513 18.0295 13.3842C18.1049 13.3171 18.1887 13.2836 18.2893 13.2836H19.3958C19.4964 13.2836 19.5886 13.3171 19.6557 13.3842C19.7311 13.4513 19.773 13.5435 19.773 13.6441V14.7924L22.338 11.0204C22.4135 10.9198 22.5225 10.8611 22.6482 10.8611H23.9894C24.1403 10.8611 24.2492 10.9281 24.3247 11.0539C24.3917 11.1796 24.3917 11.3137 24.2995 11.4395L21.4411 15.6642L25.1545 21.096Z" fill="white"/>
<path d="M18.8261 11.8084C18.3148 11.8 17.795 11.7748 17.3005 11.6659C16.3533 11.4731 15.6743 10.9031 15.2132 10.0648C14.7606 9.26011 14.5175 8.37996 14.3331 7.47465C14.2912 7.27347 14.4001 7.09744 14.6097 7.09744C15.7833 7.13935 16.9484 7.25671 17.9878 7.86025C18.5998 8.21231 19.0189 8.7404 19.2536 9.39423C19.4883 10.0313 19.6056 10.7019 19.6727 11.3809C19.6979 11.6575 19.6056 11.7497 19.329 11.7581C19.2536 11.7581 19.1614 11.7832 19.0776 11.7832C18.9937 11.8168 18.9183 11.8084 18.8261 11.8084Z" fill="white"/>
<path d="M19.8138 28.8872H19.2089L18.4906 30.063L17.7723 28.8872H17.1675V31.5336H17.7723V29.9949L18.4566 31.1177H18.5247L19.2089 29.9949V31.5336H19.8138V28.8872ZM20.6467 28.8872V31.5336H21.2516V28.8872H20.6467ZM22.9736 31.5865C23.5483 31.5865 23.9566 31.2841 23.9566 30.7737C23.9566 30.2142 23.5067 30.0743 23.1059 29.9533C22.6939 29.8286 22.6296 29.7454 22.6296 29.6244C22.6296 29.5186 22.7241 29.4241 22.9131 29.4241C23.1551 29.4241 23.2798 29.5412 23.3706 29.7303L23.8809 29.4316C23.6881 29.0422 23.3479 28.8343 22.9131 28.8343C22.4557 28.8343 22.0247 29.1292 22.0247 29.6395C22.0247 30.1461 22.4103 30.3352 22.8035 30.4448C23.2005 30.5544 23.3517 30.6187 23.3517 30.7813C23.3517 30.8833 23.2798 30.9967 22.9925 30.9967C22.6939 30.9967 22.5313 30.8493 22.4368 30.63L21.9151 30.9325C22.0625 31.3219 22.4179 31.5865 22.9736 31.5865ZM9.88079 34.4694V33.8872H8.27408V36.5336H8.87895V35.562H9.86188V34.9798H8.87895V34.4694H9.88079ZM12.1841 36.5336H12.8457L11.9459 33.8872H11.1747L10.2749 36.5336H10.9365L11.0688 36.1177H12.0518L12.1841 36.5336ZM11.2503 35.5506L11.5603 34.5791L11.8703 35.5506H11.2503ZM14.8406 36.5336H15.4908L14.9275 35.562C15.2186 35.4145 15.4152 35.1197 15.4152 34.7945C15.4152 34.2917 15.0107 33.8872 14.5079 33.8872H13.4494V36.5336H14.0542V35.6641H14.3416L14.8406 36.5336ZM14.0542 34.4543H14.5079C14.6742 34.4543 14.8103 34.6017 14.8103 34.7945C14.8103 34.9873 14.6742 35.1348 14.5079 35.1348H14.0542V34.4543ZM18.7997 33.8872H18.1948L17.4765 35.063L16.7582 33.8872H16.1533V36.5336H16.7582V34.9949L17.4425 36.1177H17.5105L18.1948 34.9949V36.5336H18.7997V33.8872ZM21.0238 36.5336H21.674L21.1107 35.562C21.4018 35.4145 21.5984 35.1197 21.5984 34.7945C21.5984 34.2917 21.1939 33.8872 20.6911 33.8872H19.6325V36.5336H20.2374V35.6641H20.5247L21.0238 36.5336ZM20.2374 34.4543H20.6911C20.8574 34.4543 20.9935 34.6017 20.9935 34.7945C20.9935 34.9873 20.8574 35.1348 20.6911 35.1348H20.2374V34.4543ZM22.9414 35.9514V35.4826H23.8865V34.908H22.9414V34.4694H23.981V33.8872H22.3365V36.5336H23.9999V35.9514H22.9414ZM26.4961 33.8872H24.5302V34.4694H25.2107V36.5336H25.8156V34.4694H26.4961V33.8872ZM28.6329 36.5336H29.2945L28.3948 33.8872H27.6235L26.7238 36.5336H27.3854L27.5177 36.1177H28.5006L28.6329 36.5336ZM27.6991 35.5506L28.0091 34.5791L28.3191 35.5506H27.6991ZM29.8982 33.8872V36.5336H30.5031V33.8872H29.8982ZM31.9407 35.9514V33.8872H31.3358V36.5336H32.8858V35.9514H31.9407Z" fill="white"/>
</g>
<defs>
<clipPath id="clip0_3352_14806">
<rect y="0.794922" width="40.8979" height="40.8979" rx="8" fill="white"/>
</clipPath>
</defs>
</svg>
