<svg width="24" height="24" viewBox="0 0 24 24" fill="none" xmlns="http://www.w3.org/2000/svg">
<path d="M20 6.5V3C20 2.44772 19.5523 2 19 2H5C4.44772 2 4 2.44772 4 3V21C4 21.5523 4.44772 22 5 22H19C19.5523 22 20 21.5523 20 21V20" stroke="white" stroke-width="1.5" stroke-linecap="round" stroke-linejoin="round"/>
<path d="M19.9167 14.8333C21.5275 14.8333 22.8333 13.5275 22.8333 11.9167C22.8333 10.3058 21.5275 9 19.9167 9C18.3058 9 17 10.3058 17 11.9167C17 13.5275 18.3058 14.8333 19.9167 14.8333Z" stroke="white" stroke-width="1.5" stroke-linecap="round" stroke-linejoin="round"/>
<path d="M18.3382 14.3709L17.834 18.1667L19.9173 16.9167L22.0007 18.1667L21.4965 14.3667" stroke="white" stroke-width="1.5" stroke-linecap="round" stroke-linejoin="round"/>
<path d="M8 10H12M8 14H14.5M8 17.5H14.5" stroke="white" stroke-width="1.5" stroke-linecap="round"/>
</svg>
