<svg width="41" height="42" viewBox="0 0 41 42" fill="none" xmlns="http://www.w3.org/2000/svg">
<g clip-path="url(#clip0_3352_14796)">
<path d="M40.957 0.964417H0.059082V41.8624H40.957V0.964417Z" fill="#2BBE72"/>
<path d="M25.1565 21.1996C25.2319 21.3253 25.2487 21.451 25.1816 21.5852C25.1146 21.7193 24.9972 21.7863 24.8463 21.7863H23.5052C23.3794 21.7863 23.2704 21.7277 23.195 21.6187L19.775 16.6395V20.1853C19.775 20.244 19.7666 20.2859 19.7498 20.3446C19.7247 20.3865 19.7079 20.4368 19.6744 20.4619C19.6408 20.4954 19.6073 20.5206 19.557 20.5373C19.5151 20.5625 19.4564 20.5625 19.3978 20.5625H18.2913C18.2242 20.5625 18.1655 20.5541 18.0985 20.5206C18.0398 20.4871 17.9979 20.4451 17.956 20.3781C17.9224 20.3194 17.9141 20.2523 17.9141 20.1853V13.7476C17.9141 13.647 17.9476 13.5548 18.0314 13.4877C18.1069 13.4207 18.1907 13.3871 18.2913 13.3871H19.3978C19.4983 13.3871 19.5906 13.4207 19.6576 13.4877C19.7331 13.5548 19.775 13.647 19.775 13.7476V14.896L22.34 11.1239C22.4154 11.0233 22.5244 10.9646 22.6501 10.9646H23.9913C24.1422 10.9646 24.2512 11.0317 24.3266 11.1574C24.3937 11.2831 24.3937 11.4173 24.3015 11.543L21.4431 15.7677L25.1565 21.1996Z" fill="white"/>
<path d="M18.828 11.9119C18.3167 11.9035 17.797 11.8784 17.3024 11.7694C16.3552 11.5766 15.6762 11.0066 15.2152 10.1683C14.7625 9.36363 14.5195 8.48347 14.335 7.57817C14.2931 7.37699 14.4021 7.20096 14.6117 7.20096C15.7852 7.24287 16.9504 7.36023 17.9898 7.96376C18.6017 8.31582 19.0208 8.84392 19.2555 9.49775C19.4902 10.1348 19.6076 10.8054 19.6747 11.4844C19.6998 11.761 19.6076 11.8532 19.331 11.8616C19.2555 11.8616 19.1633 11.8867 19.0795 11.8867C18.9957 11.9203 18.9202 11.9119 18.828 11.9119Z" fill="white"/>
<path d="M20.0394 28.9907H19.4345L18.7162 30.1665L17.9979 28.9907H17.3931V31.6371H17.9979V30.0984L18.6822 31.2212H18.7503L19.4345 30.0984V31.6371H20.0394V28.9907ZM20.8723 28.9907V31.6371H21.4772V28.9907H20.8723ZM23.1992 31.69C23.7738 31.69 24.1821 31.3876 24.1821 30.8772C24.1821 30.3177 23.7323 30.1778 23.3315 30.0568C22.9195 29.9321 22.8552 29.8489 22.8552 29.7279C22.8552 29.6221 22.9497 29.5276 23.1387 29.5276C23.3807 29.5276 23.5054 29.6448 23.5962 29.8338L24.1065 29.5351C23.9137 29.1457 23.5735 28.9378 23.1387 28.9378C22.6813 28.9378 22.2503 29.2327 22.2503 29.7431C22.2503 30.2496 22.6359 30.4387 23.0291 30.5483C23.426 30.6579 23.5773 30.7222 23.5773 30.8848C23.5773 30.9868 23.5054 31.1003 23.2181 31.1003C22.9195 31.1003 22.7569 30.9528 22.6624 30.7335L22.1407 31.036C22.2881 31.4254 22.6435 31.69 23.1992 31.69ZM6.77481 34.5729V33.9907H5.1681V36.6371H5.77298V35.6655H6.75591V35.0833H5.77298V34.5729H6.77481ZM9.07811 36.6371H9.73969L8.83994 33.9907H8.06871L7.16896 36.6371H7.83054L7.96286 36.2212H8.94579L9.07811 36.6371ZM8.14432 35.6542L8.45432 34.6826L8.76433 35.6542H8.14432ZM11.7346 36.6371H12.3849L11.8216 35.6655C12.1127 35.5181 12.3092 35.2232 12.3092 34.8981C12.3092 34.3953 11.9047 33.9907 11.4019 33.9907H10.3434V36.6371H10.9483V35.7676H11.2356L11.7346 36.6371ZM10.9483 34.5578H11.4019C11.5683 34.5578 11.7044 34.7053 11.7044 34.8981C11.7044 35.0909 11.5683 35.2383 11.4019 35.2383H10.9483V34.5578ZM15.6937 33.9907H15.0888L14.3705 35.1665L13.6522 33.9907H13.0473V36.6371H13.6522V35.0984L14.3365 36.2212H14.4045L15.0888 35.0984V36.6371H15.6937V33.9907ZM18.6058 36.6371L17.8157 35.2799L18.568 33.9907H17.88L17.4717 34.6901L17.0634 33.9907H16.3753L17.1277 35.2799L16.3375 36.6371H17.0256L17.4717 35.8734L17.9178 36.6371H18.6058ZM21.0258 33.9907H19.0599V34.5729H19.7404V36.6371H20.3453V34.5729H21.0258V33.9907ZM22.2735 36.0549V35.5861H23.2186V35.0115H22.2735V34.5729H23.3131V33.9907H21.6686V36.6371H23.332V36.0549H22.2735ZM25.5258 33.9907V35.4273L24.505 33.9907H24.0514V36.6371H24.6563V35.2005L25.677 36.6371H26.1306V33.9907H25.5258ZM28.7389 33.9907H26.773V34.5729H27.4535V36.6371H28.0584V34.5729H28.7389V33.9907ZM29.3817 33.9907V36.6371H29.9866V33.9907H29.3817ZM32.082 36.69C32.8419 36.69 33.4581 36.0927 33.4581 35.3139C33.4581 34.5351 32.8419 33.9378 32.082 33.9378C31.3222 33.9378 30.7059 34.5351 30.7059 35.3139C30.7059 36.0927 31.3222 36.69 32.082 36.69ZM32.082 36.1003C31.6511 36.1003 31.3108 35.7865 31.3108 35.3139C31.3108 34.8414 31.6511 34.5276 32.082 34.5276C32.513 34.5276 32.8533 34.8414 32.8533 35.3139C32.8533 35.7865 32.513 36.1003 32.082 36.1003ZM35.6511 33.9907V35.4273L34.6304 33.9907H34.1768V36.6371H34.7816V35.2005L35.8024 36.6371H36.256V33.9907H35.6511Z" fill="white"/>
</g>
<defs>
<clipPath id="clip0_3352_14796">
<rect y="0.898438" width="40.8979" height="40.8979" rx="8" fill="white"/>
</clipPath>
</defs>
</svg>
