<svg width="41" height="41" viewBox="0 0 41 41" fill="none" xmlns="http://www.w3.org/2000/svg">
<g clip-path="url(#clip0_3352_14786)">
<path d="M40.956 0.065979H0.0581055V40.9639H40.956V0.065979Z" fill="#2BBE72"/>
<path d="M25.1565 20.3011C25.2319 20.4268 25.2487 20.5526 25.1816 20.6867C25.1146 20.8208 24.9972 20.8879 24.8463 20.8879H23.5052C23.3794 20.8879 23.2704 20.8292 23.195 20.7202L19.775 15.741V19.2868C19.775 19.3455 19.7666 19.3874 19.7498 19.4461C19.7247 19.488 19.7079 19.5383 19.6744 19.5634C19.6408 19.597 19.6073 19.6221 19.557 19.6389C19.5151 19.664 19.4564 19.664 19.3978 19.664H18.2913C18.2242 19.664 18.1655 19.6556 18.0985 19.6221C18.0398 19.5886 17.9979 19.5467 17.956 19.4796C17.9224 19.4209 17.9141 19.3539 17.9141 19.2868V12.8491C17.9141 12.7485 17.9476 12.6563 18.0314 12.5892C18.1069 12.5222 18.1907 12.4887 18.2913 12.4887H19.3978C19.4983 12.4887 19.5906 12.5222 19.6576 12.5892C19.7331 12.6563 19.775 12.7485 19.775 12.8491V13.9975L22.34 10.2254C22.4154 10.1248 22.5244 10.0661 22.6501 10.0661H23.9913C24.1422 10.0661 24.2512 10.1332 24.3266 10.2589C24.3937 10.3847 24.3937 10.5188 24.3015 10.6445L21.4431 14.8693L25.1565 20.3011Z" fill="white"/>
<path d="M18.828 11.0135C18.3167 11.0052 17.797 10.98 17.3024 10.871C16.3552 10.6782 15.6762 10.1082 15.2152 9.27C14.7625 8.46528 14.5195 7.58513 14.335 6.67982C14.2931 6.47864 14.4021 6.30261 14.6117 6.30261C15.7852 6.34452 16.9504 6.46188 17.9898 7.06542C18.6017 7.41748 19.0208 7.94557 19.2555 8.5994C19.4902 9.23647 19.6076 9.90706 19.6747 10.586C19.6998 10.8627 19.6076 10.9549 19.331 10.9633C19.2555 10.9633 19.1633 10.9884 19.0795 10.9884C18.9957 11.0219 18.9202 11.0135 18.828 11.0135Z" fill="white"/>
<path d="M19.9134 28.0923H19.3085L18.5902 29.268L17.872 28.0923H17.2671V30.7386H17.872V29.2L18.5562 30.3228H18.6243L19.3085 29.2V30.7386H19.9134V28.0923ZM20.7463 28.0923V30.7386H21.3512V28.0923H20.7463ZM23.0732 30.7916C23.6479 30.7916 24.0562 30.4891 24.0562 29.9788C24.0562 29.4193 23.6063 29.2794 23.2056 29.1584C22.7935 29.0336 22.7292 28.9505 22.7292 28.8295C22.7292 28.7236 22.8237 28.6291 23.0127 28.6291C23.2547 28.6291 23.3795 28.7463 23.4702 28.9354L23.9806 28.6367C23.7878 28.2473 23.4475 28.0394 23.0127 28.0394C22.5553 28.0394 22.1243 28.3343 22.1243 28.8446C22.1243 29.3512 22.5099 29.5402 22.9031 29.6499C23.3001 29.7595 23.4513 29.8238 23.4513 29.9863C23.4513 30.0884 23.3795 30.2018 23.0921 30.2018C22.7935 30.2018 22.6309 30.0544 22.5364 29.8351L22.0147 30.1375C22.1621 30.5269 22.5175 30.7916 23.0732 30.7916ZM11.5269 33.6745V33.0923H9.92022V35.7386H10.5251V34.7671H11.508V34.1849H10.5251V33.6745H11.5269ZM13.8302 35.7386H14.4918L13.5921 33.0923H12.8208L11.9211 35.7386H12.5827L12.715 35.3228H13.6979L13.8302 35.7386ZM12.8964 34.7557L13.2064 33.7841L13.5164 34.7557H12.8964ZM16.4867 35.7386H17.137L16.5737 34.7671C16.8648 34.6196 17.0614 34.3247 17.0614 33.9996C17.0614 33.4968 16.6569 33.0923 16.154 33.0923H15.0955V35.7386H15.7004V34.8691H15.9877L16.4867 35.7386ZM15.7004 33.6594H16.154C16.3204 33.6594 16.4565 33.8068 16.4565 33.9996C16.4565 34.1924 16.3204 34.3399 16.154 34.3399H15.7004V33.6594ZM20.4458 33.0923H19.8409L19.1226 34.268L18.4043 33.0923H17.7994V35.7386H18.4043V34.2L19.0886 35.3228H19.1566L19.8409 34.2V35.7386H20.4458V33.0923ZM23.8986 34.2643H22.5716V34.7935H23.2786C23.1841 35.0468 22.9534 35.2018 22.6019 35.2018C22.0877 35.2018 21.7701 34.8729 21.7701 34.423C21.7701 33.958 22.1028 33.6291 22.5489 33.6291C22.8476 33.6291 23.0858 33.7652 23.1954 33.9391L23.7095 33.6443C23.4865 33.2889 23.0593 33.0394 22.5527 33.0394C21.7739 33.0394 21.1653 33.6518 21.1653 34.4193C21.1653 35.1791 21.7626 35.7916 22.5943 35.7916C23.3353 35.7916 23.8986 35.3001 23.8986 34.4911V34.2643ZM26.204 35.7386H26.8655L25.9658 33.0923H25.1946L24.2948 35.7386H24.9564L25.0887 35.3228H26.0716L26.204 35.7386ZM25.2702 34.7557L25.5802 33.7841L25.8902 34.7557H25.2702ZM29.0578 33.0923H27.0919V33.6745H27.7724V35.7386H28.3773V33.6745H29.0578V33.0923ZM30.3055 35.1565V34.6877H31.2506V34.113H30.3055V33.6745H31.3451V33.0923H29.7006V35.7386H31.364V35.1565H30.3055Z" fill="white"/>
</g>
<defs>
<clipPath id="clip0_3352_14786">
<rect width="40.8979" height="40.8979" rx="8" fill="white"/>
</clipPath>
</defs>
</svg>
