<svg width="41" height="41" viewBox="0 0 41 41" fill="none" xmlns="http://www.w3.org/2000/svg">
<g clip-path="url(#clip0_6631_12550)">
<path d="M41.0581 0.117188H0.160156V41.0151H41.0581V0.117188Z" fill="#54A7DC"/>
<path d="M8.43633 22.46H10.9363V24H6.83633V17H8.43633V22.46ZM15.5806 24.14C13.5706 24.14 11.9406 22.56 11.9406 20.5C11.9406 18.44 13.5706 16.86 15.5806 16.86C17.5906 16.86 19.2206 18.44 19.2206 20.5C19.2206 22.56 17.5906 24.14 15.5806 24.14ZM15.5806 22.58C16.7206 22.58 17.6206 21.75 17.6206 20.5C17.6206 19.25 16.7206 18.42 15.5806 18.42C14.4406 18.42 13.5406 19.25 13.5406 20.5C13.5406 21.75 14.4406 22.58 15.5806 22.58ZM25.3176 24L24.9676 22.9H22.3676L22.0176 24H20.2676L22.6476 17H24.6876L27.0676 24H25.3176ZM22.8476 21.4H24.4876L23.6676 18.83L22.8476 21.4ZM32.5645 17H34.1645V24H32.9645L30.2645 20.2V24H28.6645V17H29.8645L32.5645 20.8V17Z" fill="white"/>
</g>
<defs>
<clipPath id="clip0_6631_12550">
<rect x="0.102051" y="0.0512695" width="40.8979" height="40.8979" rx="8" fill="white"/>
</clipPath>
</defs>
</svg>
