<svg width="41" height="41" viewBox="0 0 41 41" fill="none" xmlns="http://www.w3.org/2000/svg">
<g clip-path="url(#clip0_6631_12135)">
<path d="M41.0581 0.116943H0.160156V41.0149H41.0581V0.116943Z" fill="#DB4D4E"/>
<path d="M19.1762 18.54H16.5262V19.89H19.1262V21.43H16.5262V24H14.9262V17H19.1762V18.54ZM24.8015 24L23.4815 21.7H22.7215V24H21.1215V17H23.9215C25.2515 17 26.3215 18.07 26.3215 19.4C26.3215 20.26 25.8015 21.04 25.0315 21.43L26.5215 24H24.8015ZM22.7215 18.5V20.3H23.9215C24.3615 20.3 24.7215 19.91 24.7215 19.4C24.7215 18.89 24.3615 18.5 23.9215 18.5H22.7215Z" fill="white"/>
</g>
<defs>
<clipPath id="clip0_6631_12135">
<rect x="0.102051" y="0.0510254" width="40.8979" height="40.8979" rx="8" fill="white"/>
</clipPath>
</defs>
</svg>
