<svg width="41" height="41" viewBox="0 0 41 41" fill="none" xmlns="http://www.w3.org/2000/svg">
<g clip-path="url(#clip0_6631_11781)">
<path d="M41.0581 0.117065H0.160156V41.015H41.0581V0.117065Z" fill="#2BBE72"/>
<path d="M18.7211 17V24H17.1211V19.93L15.3111 22.9H15.1311L13.3211 19.93V24H11.7211V17H13.3211L15.2211 20.11L17.1211 17H18.7211ZM20.9242 17H22.5242V24H20.9242V17ZM27.0793 24.14C25.6093 24.14 24.6693 23.44 24.2793 22.41L25.6593 21.61C25.9093 22.19 26.3393 22.58 27.1293 22.58C27.8893 22.58 28.0793 22.28 28.0793 22.01C28.0793 21.58 27.6793 21.41 26.6293 21.12C25.5893 20.83 24.5693 20.33 24.5693 18.99C24.5693 17.64 25.7093 16.86 26.9193 16.86C28.0693 16.86 28.9693 17.41 29.4793 18.44L28.1293 19.23C27.8893 18.73 27.5593 18.42 26.9193 18.42C26.4193 18.42 26.1693 18.67 26.1693 18.95C26.1693 19.27 26.3393 19.49 27.4293 19.82C28.4893 20.14 29.6793 20.51 29.6793 21.99C29.6793 23.34 28.5993 24.14 27.0793 24.14Z" fill="white"/>
</g>
<defs>
<clipPath id="clip0_6631_11781">
<rect x="0.102051" y="0.0510254" width="40.8979" height="40.8979" rx="8" fill="white"/>
</clipPath>
</defs>
</svg>
