<svg width="24" height="24" viewBox="0 0 24 24" fill="none" xmlns="http://www.w3.org/2000/svg">
<path d="M20.4762 9.81934C18.1155 8.19818 15.1809 7.23751 12.0008 7.23751C8.8207 7.23751 5.8861 8.19818 3.52539 9.81934L12.0008 1.25146L20.4762 9.81934Z" stroke="white" stroke-width="1.5" stroke-linecap="round" stroke-linejoin="round"/>
<path d="M7 8.7251C7 10.5183 7.92149 12.1801 9.42752 13.1027L9.94202 13.4179C11.2087 14.1939 12.7913 14.1939 14.058 13.4179L14.5725 13.1027C16.0785 12.1801 17 10.5183 17 8.7251" stroke="white" stroke-width="1.5" stroke-linecap="round"/>
<path d="M15 13L16 16M16 16L14.6312 17.1954C13.3773 18.2905 12.7504 18.838 12 18.838C11.2496 18.838 10.6227 18.2905 9.36884 17.1954L8 16M16 16L17.7341 16.578C18.7322 16.9107 19.2312 17.0771 19.6742 17.3342C20.1079 17.5859 20.5012 17.9014 20.841 18.2701C21.1881 18.6468 22 20 22 22M9 13L8 16M8 16L6.26586 16.578C5.2678 16.9107 4.76877 17.0771 4.32577 17.3342C3.89213 17.5859 3.49882 17.9014 3.15903 18.2701C2.81191 18.6468 2 20 2 22" stroke="white" stroke-width="1.5" stroke-linecap="round" stroke-linejoin="round"/>
</svg>
